<mxfile host="app.diagrams.net" modified="2025-10-12T00:00:00.000Z" agent="drawio-mcp-server">
  <diagram id="frontend-diagram" name="Frontend Package Diagram">
    <mxGraphModel dx="1280" dy="720" grid="1" gridSize="10" guides="1" tooltips="1" connect="1" arrows="1" fold="1" page="1" pageScale="1" pageWidth="1100" pageHeight="850" math="0" shadow="0">
      <root>
        <mxCell id="0"/>
        <mxCell id="1" parent="0"/>
        <mxCell id="frontendContainer" value="Frontend" style="shape=package;whiteSpace=wrap;html=1;fontSize=20;fontStyle=1;strokeColor=#000000;fillColor=#f5f5f5;container=1;" vertex="1" parent="1">
          <mxGeometry x="20" y="20" width="720" height="360" as="geometry"/>
        </mxCell>
        <mxCell id="pkgAuth" value="auth" style="shape=package;whiteSpace=wrap;html=1;fontSize=14;strokeColor=#222222;fillColor=#ffffff;" vertex="1" parent="1">
          <mxGeometry x="80" y="90" width="150" height="100" as="geometry"/>
        </mxCell>
        <mxCell id="pkgServices" value="services" style="shape=package;whiteSpace=wrap;html=1;fontSize=14;strokeColor=#222222;fillColor=#ffffff;" vertex="1" parent="1">
          <mxGeometry x="280" y="90" width="150" height="100" as="geometry"/>
        </mxCell>
        <mxCell id="pkgPages" value="pages" style="shape=package;whiteSpace=wrap;html=1;fontSize=14;strokeColor=#222222;fillColor=#ffffff;" vertex="1" parent="1">
          <mxGeometry x="480" y="90" width="150" height="100" as="geometry"/>
        </mxCell>
        <mxCell id="pkgComponents" value="components" style="shape=package;whiteSpace=wrap;html=1;fontSize=14;strokeColor=#222222;fillColor=#ffffff;" vertex="1" parent="1">
          <mxGeometry x="80" y="240" width="150" height="100" as="geometry"/>
        </mxCell>
        <mxCell id="pkgNodeModules" value="node_modules" style="shape=package;whiteSpace=wrap;html=1;fontSize=14;strokeColor=#222222;fillColor=#ffffff;" vertex="1" parent="1">
          <mxGeometry x="280" y="240" width="150" height="100" as="geometry"/>
        </mxCell>
        <mxCell id="pkgUtils" value="utils" style="shape=package;whiteSpace=wrap;html=1;fontSize=14;strokeColor=#222222;fillColor=#ffffff;" vertex="1" parent="1">
          <mxGeometry x="480" y="240" width="150" height="100" as="geometry"/>
        </mxCell>
        <mxCell id="edgeServicesAuth" value="&lt;&lt;import&gt;&gt;" style="edgeStyle=orthogonalEdgeStyle;rounded=0;orthogonalLoop=1;jettySize=auto;html=1;dashed=1;dashPattern=5 5;endArrow=classic;endFill=0;fontSize=12;strokeColor=#555555;" edge="1" parent="1" source="pkgServices" target="pkgAuth">
          <mxGeometry relative="1" as="geometry"/>
        </mxCell>
        <mxCell id="edgePagesServices" value="&lt;&lt;import&gt;&gt;" style="edgeStyle=orthogonalEdgeStyle;rounded=0;orthogonalLoop=1;jettySize=auto;html=1;dashed=1;dashPattern=5 5;endArrow=classic;endFill=0;fontSize=12;strokeColor=#555555;" edge="1" parent="1" source="pkgPages" target="pkgServices">
          <mxGeometry relative="1" as="geometry"/>
        </mxCell>
        <mxCell id="edgeComponentsServices" value="&lt;&lt;import&gt;&gt;" style="edgeStyle=orthogonalEdgeStyle;rounded=0;orthogonalLoop=1;jettySize=auto;html=1;dashed=1;dashPattern=5 5;endArrow=classic;endFill=0;fontSize=12;strokeColor=#555555;" edge="1" parent="1" source="pkgComponents" target="pkgServices">
          <mxGeometry relative="1" as="geometry"/>
        </mxCell>
        <mxCell id="edgeComponentsUtils" value="&lt;&lt;import&gt;&gt;" style="edgeStyle=orthogonalEdgeStyle;rounded=0;orthogonalLoop=1;jettySize=auto;html=1;dashed=1;dashPattern=5 5;endArrow=classic;endFill=0;fontSize=12;strokeColor=#555555;" edge="1" parent="1" source="pkgComponents" target="pkgUtils">
          <mxGeometry relative="1" as="geometry"/>
        </mxCell>
        <mxCell id="edgeServicesNodeModules" value="&lt;&lt;import&gt;&gt;" style="edgeStyle=orthogonalEdgeStyle;rounded=0;orthogonalLoop=1;jettySize=auto;html=1;dashed=1;dashPattern=5 5;endArrow=classic;endFill=0;fontSize=12;strokeColor=#555555;" edge="1" parent="1" source="pkgServices" target="pkgNodeModules">
          <mxGeometry relative="1" as="geometry"/>
        </mxCell>
        <mxCell id="edgeUtilsNodeModules" value="&lt;&lt;import&gt;&gt;" style="edgeStyle=orthogonalEdgeStyle;rounded=0;orthogonalLoop=1;jettySize=auto;html=1;dashed=1;dashPattern=5 5;endArrow=classic;endFill=0;fontSize=12;strokeColor=#555555;" edge="1" parent="1" source="pkgUtils" target="pkgNodeModules">
          <mxGeometry relative="1" as="geometry"/>
        </mxCell>
        <mxCell id="edgePagesUtils" value="&lt;&lt;import&gt;&gt;" style="edgeStyle=orthogonalEdgeStyle;rounded=0;orthogonalLoop=1;jettySize=auto;html=1;dashed=1;dashPattern=5 5;endArrow=classic;endFill=0;fontSize=12;strokeColor=#555555;" edge="1" parent="1" source="pkgPages" target="pkgUtils">
          <mxGeometry relative="1" as="geometry"/>
        </mxCell>
        <mxCell id="edgeComponentsNodeModules" value="&lt;&lt;import&gt;&gt;" style="edgeStyle=orthogonalEdgeStyle;rounded=0;orthogonalLoop=1;jettySize=auto;html=1;dashed=1;dashPattern=5 5;endArrow=classic;endFill=0;fontSize=12;strokeColor=#555555;" edge="1" parent="1" source="pkgComponents" target="pkgNodeModules">
          <mxGeometry relative="1" as="geometry"/>
        </mxCell>
      </root>
    </mxGraphModel>
  </diagram>
  <diagram id="backend-diagram" name="Backend Package Diagram">
    <mxGraphModel dx="1280" dy="720" grid="1" gridSize="10" guides="1" tooltips="1" connect="1" arrows="1" fold="1" page="1" pageScale="1" pageWidth="1100" pageHeight="850" math="0" shadow="0">
      <root>
        <mxCell id="0"/>
        <mxCell id="1" parent="0"/>
        <mxCell id="backendContainer" value="Backend" style="shape=package;whiteSpace=wrap;html=1;fontSize=20;fontStyle=1;strokeColor=#000000;fillColor=#f5f5f5;container=1;" vertex="1" parent="1">
          <mxGeometry x="20" y="20" width="820" height="360" as="geometry"/>
        </mxCell>
        <mxCell id="pkgConfig" value="config" style="shape=package;whiteSpace=wrap;html=1;fontSize=14;strokeColor=#222222;fillColor=#ffffff;" vertex="1" parent="1">
          <mxGeometry x="80" y="90" width="150" height="100" as="geometry"/>
        </mxCell>
        <mxCell id="pkgControllers" value="controllers" style="shape=package;whiteSpace=wrap;html=1;fontSize=14;strokeColor=#222222;fillColor=#ffffff;" vertex="1" parent="1">
          <mxGeometry x="280" y="90" width="150" height="100" as="geometry"/>
        </mxCell>
        <mxCell id="pkgRoutes" value="routes" style="shape=package;whiteSpace=wrap;html=1;fontSize=14;strokeColor=#222222;fillColor=#ffffff;" vertex="1" parent="1">
          <mxGeometry x="480" y="90" width="150" height="100" as="geometry"/>
        </mxCell>
        <mxCell id="pkgServicesServer" value="services" style="shape=package;whiteSpace=wrap;html=1;fontSize=14;strokeColor=#222222;fillColor=#ffffff;" vertex="1" parent="1">
          <mxGeometry x="80" y="240" width="150" height="100" as="geometry"/>
        </mxCell>
        <mxCell id="pkgModels" value="models" style="shape=package;whiteSpace=wrap;html=1;fontSize=14;strokeColor=#222222;fillColor=#ffffff;" vertex="1" parent="1">
          <mxGeometry x="280" y="240" width="150" height="100" as="geometry"/>
        </mxCell>
        <mxCell id="pkgMiddleware" value="middleware" style="shape=package;whiteSpace=wrap;html=1;fontSize=14;strokeColor=#222222;fillColor=#ffffff;" vertex="1" parent="1">
          <mxGeometry x="480" y="240" width="150" height="100" as="geometry"/>
        </mxCell>
        <mxCell id="pkgUtilsServer" value="utils" style="shape=package;whiteSpace=wrap;html=1;fontSize=14;strokeColor=#222222;fillColor=#ffffff;" vertex="1" parent="1">
          <mxGeometry x="680" y="240" width="150" height="100" as="geometry"/>
        </mxCell>
        <mxCell id="edgeRoutesControllers" value="&lt;&lt;import&gt;&gt;" style="edgeStyle=orthogonalEdgeStyle;rounded=0;orthogonalLoop=1;jettySize=auto;html=1;dashed=1;dashPattern=5 5;endArrow=classic;endFill=0;fontSize=12;strokeColor=#555555;" edge="1" parent="1" source="pkgRoutes" target="pkgControllers">
          <mxGeometry relative="1" as="geometry"/>
        </mxCell>
        <mxCell id="edgeControllersServices" value="&lt;&lt;import&gt;&gt;" style="edgeStyle=orthogonalEdgeStyle;rounded=0;orthogonalLoop=1;jettySize=auto;html=1;dashed=1;dashPattern=5 5;endArrow=classic;endFill=0;fontSize=12;strokeColor=#555555;" edge="1" parent="1" source="pkgControllers" target="pkgServicesServer">
          <mxGeometry relative="1" as="geometry"/>
        </mxCell>
        <mxCell id="edgeServicesModels" value="&lt;&lt;import&gt;&gt;" style="edgeStyle=orthogonalEdgeStyle;rounded=0;orthogonalLoop=1;jettySize=auto;html=1;dashed=1;dashPattern=5 5;endArrow=classic;endFill=0;fontSize=12;strokeColor=#555555;" edge="1" parent="1" source="pkgServicesServer" target="pkgModels">
          <mxGeometry relative="1" as="geometry"/>
        </mxCell>
        <mxCell id="edgeMiddlewareControllers" value="&lt;&lt;import&gt;&gt;" style="edgeStyle=orthogonalEdgeStyle;rounded=0;orthogonalLoop=1;jettySize=auto;html=1;dashed=1;dashPattern=5 5;endArrow=classic;endFill=0;fontSize=12;strokeColor=#555555;" edge="1" parent="1" source="pkgMiddleware" target="pkgControllers">
          <mxGeometry relative="1" as="geometry"/>
        </mxCell>
        <mxCell id="edgeServicesUtilsServer" value="&lt;&lt;import&gt;&gt;" style="edgeStyle=orthogonalEdgeStyle;rounded=0;orthogonalLoop=1;jettySize=auto;html=1;dashed=1;dashPattern=5 5;endArrow=classic;endFill=0;fontSize=12;strokeColor=#555555;" edge="1" parent="1" source="pkgServicesServer" target="pkgUtilsServer">
          <mxGeometry relative="1" as="geometry"/>
        </mxCell>
        <mxCell id="edgeControllersConfig" value="&lt;&lt;import&gt;&gt;" style="edgeStyle=orthogonalEdgeStyle;rounded=0;orthogonalLoop=1;jettySize=auto;html=1;dashed=1;dashPattern=5 5;endArrow=classic;endFill=0;fontSize=12;strokeColor=#555555;" edge="1" parent="1" source="pkgControllers" target="pkgConfig">
          <mxGeometry relative="1" as="geometry"/>
        </mxCell>
        <mxCell id="edgeRoutesMiddleware" value="&lt;&lt;import&gt;&gt;" style="edgeStyle=orthogonalEdgeStyle;rounded=0;orthogonalLoop=1;jettySize=auto;html=1;dashed=1;dashPattern=5 5;endArrow=classic;endFill=0;fontSize=12;strokeColor=#555555;" edge="1" parent="1" source="pkgRoutes" target="pkgMiddleware">
          <mxGeometry relative="1" as="geometry"/>
        </mxCell>
      </root>
    </mxGraphModel>
  </diagram>
</mxfile>
